<svg width="88" height="72" viewBox="0 0 88 72" fill="none" xmlns="http://www.w3.org/2000/svg">
<path d="M82.6921 48.8221H87.4756L81.2203 42.2879C72.2666 32.9181 59.8785 27.6167 46.8772 27.6167H45.4054H42.2164H40.6219C27.7432 27.6167 15.3552 32.9181 6.27878 42.2879L0.0234375 48.8221H4.80694C17.6856 48.8221 30.0736 43.5208 39.15 34.1509L43.8109 29.3427C41.1125 45.8632 17.6856 72.0001 17.6856 72.0001H43.9335H70.1814C70.1814 72.0001 46.9999 46.2331 44.0562 29.7126L48.3491 34.2742C57.3028 43.5208 69.6908 48.8221 82.6921 48.8221Z" fill="#484849"/>
<path d="M39.8849 17.9998L43.6872 14.0546L47.4895 17.9998C54.8487 25.7669 65.1516 30.082 75.8225 30.082H79.7474L74.596 24.6574C67.2367 16.8903 56.9338 12.5752 46.2629 12.5752H45.0364H42.338H41.1115C30.4406 12.5752 20.2603 16.8903 12.7784 24.6574L7.62695 30.2053H11.5519C22.2228 30.2053 32.5257 25.7669 39.8849 17.9998Z" fill="#484849"/>
<path d="M40.6219 4.43834L43.6883 1.23287L46.7546 4.43834C52.7647 10.726 61.1051 14.3013 69.8136 14.3013H73.0026L68.8323 9.86299C62.8223 3.57533 54.4818 0 45.7734 0H44.7922H42.5844H41.6032C32.8948 0 24.5543 3.57533 18.5443 9.86299L14.374 14.3013H17.563C26.2714 14.3013 34.6119 10.726 40.6219 4.43834Z" fill="#484849"/>
</svg>
