<svg width="44" height="44" viewBox="0 0 44 44" fill="none" xmlns="http://www.w3.org/2000/svg">
<path d="M22.0001 44C34.1507 44 44.0001 34.1506 44.0001 22V6.6C44.0001 4.84957 43.3047 3.17084 42.067 1.9331C40.8292 0.695355 39.1505 0 37.4001 0H23.1001V9.6514C23.1001 11.8536 23.2343 14.135 24.3893 16.0094C25.2161 17.3527 26.3222 18.5025 27.6326 19.3807C28.9429 20.2589 30.4269 20.8449 31.9837 21.0991L32.405 21.1673C32.5786 21.2267 32.7294 21.3389 32.8362 21.4882C32.9429 21.6375 33.0003 21.8164 33.0003 22C33.0003 22.1836 32.9429 22.3625 32.8362 22.5118C32.7294 22.6611 32.5786 22.7733 32.405 22.8327L31.9837 22.9009C29.709 23.2725 27.6086 24.3491 25.9789 25.9788C24.3492 27.6085 23.2725 29.709 22.901 31.9836L22.8328 32.4049C22.7734 32.5786 22.6612 32.7294 22.5119 32.8361C22.3626 32.9429 22.1836 33.0003 22.0001 33.0003C21.8165 33.0003 21.6375 32.9429 21.4882 32.8361C21.3389 32.7294 21.2267 32.5786 21.1674 32.4049L21.0992 31.9836C20.8449 30.4268 20.2588 28.9429 19.3806 27.6326C18.5025 26.3223 17.3527 25.2161 16.0095 24.3892C14.1351 23.2342 11.8537 23.1 9.65145 23.1H0.0264526C0.601753 34.7391 10.2191 44 22.0001 44Z" fill="#484849"/>
<path d="M0 20.9H9.6514C11.8536 20.9 14.135 20.7658 16.0094 19.6108C17.4746 18.708 18.708 17.4746 19.6108 16.0094C20.7658 14.135 20.9 11.8536 20.9 9.6514V0H6.6C4.84957 0 3.17084 0.695355 1.9331 1.9331C0.695355 3.17084 0 4.84957 0 6.6V20.9Z" fill="#484849"/>
</svg>
