<svg width="44" height="44" viewBox="0 0 44 44" fill="none" xmlns="http://www.w3.org/2000/svg">
<path d="M21.9998 30.8012C17.1396 30.8012 13.1997 26.8613 13.1997 22.0012C13.1997 17.1411 17.1396 13.2012 21.9998 13.2012C26.8599 13.2012 30.7998 17.1411 30.7998 22.0012C30.7998 26.8613 26.8599 30.8012 21.9998 30.8012Z" fill="#484849"/>
<path d="M4.95162 25.0061C2.40144 25.4558 0.653425 27.9192 1.63236 30.3166C2.99907 33.6635 5.17947 36.6456 8.00621 38.9758C12.0482 42.3076 17.1464 44.088 22.3839 43.9967C27.6214 43.9053 32.6544 41.948 36.5778 38.477C39.3214 36.0497 41.3964 32.9933 42.6456 29.6007C43.5403 27.1706 41.7072 24.7697 39.1429 24.4093C36.5787 24.0489 34.2763 25.9154 33.0097 28.1741C32.3231 29.3983 31.4318 30.509 30.3641 31.4537C28.113 33.4453 25.2253 34.5682 22.2204 34.6207C19.2153 34.673 16.2902 33.6517 13.971 31.7399C12.8709 30.833 11.9415 29.7541 11.2126 28.5545C9.86792 26.3415 7.5018 24.5564 4.95162 25.0061Z" fill="#484849"/>
<path d="M43.8301 24.7493C43.9425 23.8486 44.0003 22.9311 44.0003 22C44.0003 9.84975 34.1505 0 22.0001 0C9.8498 0 0 9.84975 0 22C0 23.1949 0.0952606 24.3675 0.27861 25.5108C1.28912 24.1274 2.86627 23.1399 4.56981 22.8396C6.41297 22.5145 8.0881 22.9616 9.50446 23.7971C9.42078 23.2102 9.37749 22.6102 9.37749 22C9.37749 15.0288 15.0289 9.37744 22.0001 9.37744C28.9714 9.37744 34.6228 15.0288 34.6228 22C34.6228 22.4597 34.5982 22.9136 34.5503 23.3605C35.9368 22.4757 37.5956 21.9701 39.4493 22.2307C41.1618 22.4714 42.7719 23.4028 43.8301 24.7493Z" fill="#484849"/>
</svg>
