<svg width="44" height="44" viewBox="0 0 44 44" fill="none" xmlns="http://www.w3.org/2000/svg">
<path fill-rule="evenodd" clip-rule="evenodd" d="M22 44C34.1504 44 44 34.1503 44 22C44 9.84974 34.1504 0 22 0C9.84973 0 0 9.84974 0 22C0 34.1503 9.84973 44 22 44ZM25.3957 16.9978C27.271 15.1224 27.271 12.0819 25.3957 10.2065C23.5203 8.33116 20.4798 8.33116 18.6044 10.2065C16.7291 12.0819 16.7291 15.1224 18.6044 16.9978L22 20.3934L25.3957 16.9978ZM27.0022 25.3957C28.8776 27.2711 31.9181 27.2711 33.7935 25.3957C35.6688 23.5203 35.6688 20.4798 33.7935 18.6044C31.9181 16.7291 28.8776 16.7291 27.0022 18.6044L23.6066 22.0001L27.0022 25.3957ZM25.3957 33.7935C27.271 31.9181 27.271 28.8776 25.3957 27.0022L22 23.6066L18.6044 27.0022C16.7291 28.8776 16.7291 31.9181 18.6044 33.7935C20.4798 35.6689 23.5203 35.6689 25.3957 33.7935ZM10.2065 25.3957C8.33118 23.5203 8.33118 20.4798 10.2065 18.6044C12.0819 16.7291 15.1224 16.7291 16.9978 18.6044L20.3934 22.0001L16.9978 25.3957C15.1224 27.2711 12.0819 27.2711 10.2065 25.3957Z" fill="#484849"/>
</svg>
