<svg width="44" height="44" viewBox="0 0 44 44" fill="none" xmlns="http://www.w3.org/2000/svg">
<path d="M42.1835 13.2889C41.3581 11.4011 40.2657 9.6418 38.9397 8.06499C36.9796 5.66446 34.5335 3.70637 31.7624 2.3196C28.9912 0.932852 25.9578 0.148853 22.8619 0.0192109C19.7661 -0.110431 16.6779 0.417222 13.8005 1.56747C10.9232 2.7177 8.32201 4.46443 6.1682 6.69269C4.01437 8.92094 2.35672 11.5802 1.30436 14.4955C0.251998 17.4107 -0.171233 20.5159 0.0625456 23.6064C0.29634 26.6972 1.18181 29.7032 2.66071 32.4268C4.13961 35.1506 6.1784 37.5301 8.64289 39.4088C10.2242 40.6383 11.9716 41.6379 13.8329 42.3777C16.4425 43.4474 19.2356 43.9984 22.0559 44C27.8775 43.9872 33.4564 41.6659 37.57 37.5452C41.6834 33.4244 43.9958 27.8404 44 22.0172C44.0042 19.0134 43.3858 16.0414 42.1835 13.2889ZM22.0396 4.47958C24.5724 4.47932 27.0745 5.03303 29.3706 6.10193C28.8107 6.34394 28.222 6.51297 27.6189 6.60487C25.6347 6.89218 23.7966 7.81364 22.3789 9.23173C20.9613 10.6498 20.04 12.4885 19.7528 14.4733C19.6268 15.5864 19.1206 16.6219 18.3199 17.4052C17.5191 18.1884 16.4728 18.6713 15.3575 18.7725C13.3733 19.0598 11.5351 19.9813 10.1175 21.3994C8.69978 22.8175 7.77857 24.6561 7.49135 26.6409C7.3941 27.6993 6.94265 28.694 6.21006 29.4638C4.94604 26.7922 4.37822 23.8441 4.55942 20.894C4.74061 17.944 5.66494 15.0876 7.2464 12.5909C8.82783 10.0942 11.015 8.03823 13.6044 6.61435C16.1937 5.19046 19.1011 4.44494 22.0559 4.44713L22.0396 4.47958ZM8.62667 33.3736C8.8213 33.1952 9.01592 33.0329 9.21055 32.8382C10.6535 31.439 11.5797 29.5918 11.838 27.5981C11.9427 26.4773 12.443 25.4306 13.249 24.6454C14.0248 23.8378 15.0688 23.3415 16.1846 23.2502C18.1689 22.9628 20.0069 22.0414 21.4246 20.6233C22.8423 19.2052 23.7635 17.3666 24.0508 15.3818C24.121 14.2096 24.6238 13.1053 25.4618 12.2831C26.2567 11.4911 27.3106 11.013 28.4299 10.9365C30.2527 10.6857 31.9528 9.87506 33.2955 8.61658C34.8245 9.88537 36.1197 11.4117 37.1232 13.1267C37.0616 13.2099 36.9908 13.2862 36.9123 13.3538C36.1382 14.1686 35.0955 14.6757 33.9767 14.7815C31.9904 15.0638 30.1496 15.9837 28.7309 17.4026C27.3124 18.8216 26.3928 20.663 26.1106 22.6499C25.9962 23.7667 25.4995 24.8097 24.7044 25.6021C23.9092 26.3946 22.8647 26.8876 21.7477 26.9978C19.7577 27.2828 17.9128 28.2025 16.4868 29.62C15.061 31.0376 14.1302 32.8773 13.8329 34.8662C13.7456 35.659 13.4733 36.4204 13.0382 37.0888C11.3741 36.1005 9.88378 34.8454 8.62667 33.3736ZM22.0396 39.6359C20.3939 39.6377 18.756 39.4083 17.174 38.9545C17.7152 37.9454 18.067 36.8456 18.212 35.7098C18.3257 34.5954 18.8202 33.5543 19.612 32.7623C20.4038 31.9703 21.4446 31.4756 22.5586 31.3619C24.5458 31.0778 26.3876 30.1578 27.8085 28.7394C29.2293 27.3211 30.153 25.4806 30.441 23.4935C30.5547 22.3791 31.0492 21.3381 31.841 20.546C32.6328 19.754 33.6736 19.2594 34.7877 19.1456C36.283 18.9511 37.7084 18.3942 38.9397 17.5233C39.6235 20.1156 39.7044 22.8301 39.1765 25.4587C38.6486 28.0872 37.5256 30.56 35.894 32.687C34.2623 34.8139 32.1654 36.539 29.7637 37.7295C27.3622 38.9199 24.72 39.5444 22.0396 39.5548V39.6359Z" fill="#484849"/>
</svg>
