<svg width="145" height="72" viewBox="0 0 145 72" fill="none" xmlns="http://www.w3.org/2000/svg">
<path d="M115.75 5.41464C115.75 6.05504 115.491 6.66921 115.03 7.12205C114.569 7.57487 113.943 7.82927 113.291 7.82927C112.639 7.82927 112.014 7.57487 111.553 7.12205C111.092 6.66921 110.833 6.05504 110.833 5.41464C110.833 4.77423 111.092 4.16005 111.553 3.70723C112.014 3.2544 112.639 3 113.291 3C113.943 3 114.569 3.2544 115.03 3.70723C115.491 4.16005 115.75 4.77423 115.75 5.41464Z" fill="#484849"/>
<path fill-rule="evenodd" clip-rule="evenodd" d="M49.7847 68.6685C37.339 68.6685 27.25 58.7589 27.25 46.5343V4.60986H35.4445V46.5343C35.4445 50.2699 36.9553 53.8527 39.6447 56.4942C42.334 59.1357 45.9814 60.6197 49.7847 60.6197C57.8038 60.6197 64.125 54.5493 64.125 46.866H72.3195V58.9392C72.3195 59.4728 72.5353 59.9846 72.9195 60.3619C73.3036 60.7393 73.8247 60.9513 74.368 60.9513C74.9115 60.9513 75.4324 60.7393 75.8167 60.3619C76.2009 59.9846 76.4167 59.4728 76.4167 58.9392V44.6526C74.9283 44.951 73.3909 44.9205 71.9161 44.5634C70.4412 44.2061 69.0655 43.5312 67.8889 42.5874C66.7125 41.6436 65.7643 40.4545 65.1133 39.1065C64.4623 37.7583 64.1247 36.2849 64.125 34.7928V14.6708C64.125 12.0025 65.2042 9.44346 67.1251 7.55666C69.046 5.66985 71.6515 4.60986 74.368 4.60986C77.0847 4.60986 79.69 5.66985 81.6111 7.55666C83.532 9.44346 84.6111 12.0025 84.6111 14.6708V58.9392C84.6111 59.4728 84.8269 59.9846 85.2112 60.3619C85.5954 60.7393 86.1165 60.9513 86.6598 60.9513C87.2031 60.9513 87.7242 60.7393 88.1083 60.3619C88.4925 59.9846 88.7083 59.4728 88.7083 58.9392V14.6708C88.7083 12.0025 89.7876 9.44346 91.7085 7.55666C93.6294 5.66985 96.2347 4.60986 98.9514 4.60986C101.668 4.60986 104.273 5.66985 106.194 7.55666C108.115 9.44346 109.194 12.0025 109.194 14.6708V58.9392C109.194 60.8076 108.665 62.6391 107.665 64.2285C106.665 65.8179 105.234 67.1024 103.532 67.938C101.831 68.7735 99.9261 69.1272 98.0316 68.9595C96.1369 68.7916 94.3273 68.109 92.8056 66.9879C91.0341 68.297 88.8766 69.0034 86.6598 69.0002C84.4429 69.0034 82.2853 68.297 80.514 66.9879C79.2811 67.896 77.8557 68.5192 76.3435 68.8111C74.8315 69.1031 73.272 69.0563 71.781 68.674C70.29 68.292 68.9059 67.5843 67.7319 66.604C66.5578 65.6236 65.6241 64.3958 65.0002 63.0119C60.9751 66.5484 55.6209 68.6685 49.7847 68.6685ZM98.9514 60.9513C97.8205 60.9513 96.9028 60.0498 96.9028 58.9392V14.6708C96.9028 14.1372 97.1187 13.6254 97.5028 13.248C97.887 12.8706 98.4081 12.6587 98.9514 12.6587C99.4947 12.6587 100.016 12.8706 100.4 13.248C100.784 13.6254 101 14.1372 101 14.6708V58.9392C101 60.0498 100.082 60.9513 98.9514 60.9513ZM76.4167 34.7928C76.4167 35.3265 76.2009 35.8383 75.8167 36.2157C75.4324 36.593 74.9115 36.805 74.368 36.805C73.8247 36.805 73.3036 36.593 72.9195 36.2157C72.5353 35.8383 72.3195 35.3265 72.3195 34.7928V14.6708C72.3195 14.1372 72.5353 13.6254 72.9195 13.248C73.3036 12.8706 73.8247 12.6587 74.368 12.6587C74.9115 12.6587 75.4324 12.8706 75.8167 13.248C76.2009 13.6254 76.4167 14.1372 76.4167 14.6708V34.7928Z" fill="#484849"/>
<path fill-rule="evenodd" clip-rule="evenodd" d="M39.541 46.866C39.541 49.5344 40.6203 52.0934 42.5412 53.9802C44.4621 55.8669 47.0676 56.927 49.7841 56.927C52.5007 56.927 55.1061 55.8669 57.0271 53.9802C58.948 52.0934 60.0271 49.5344 60.0271 46.866V14.6708C60.0271 12.0025 58.948 9.44346 57.0271 7.55666C55.1061 5.66985 52.5007 4.60986 49.7841 4.60986C47.0676 4.60986 44.4621 5.66985 42.5412 7.55666C40.6203 9.44346 39.541 12.0025 39.541 14.6708V46.866ZM49.7841 48.8781C48.6534 48.8781 47.7355 47.9768 47.7355 46.866V14.6708C47.7355 14.1372 47.9514 13.6254 48.3355 13.248C48.7197 12.8706 49.2408 12.6587 49.7841 12.6587C50.3275 12.6587 50.8485 12.8706 51.2328 13.248C51.6169 13.6254 51.8328 14.1372 51.8328 14.6708V46.866C51.8328 47.9768 50.9149 48.8781 49.7841 48.8781Z" fill="#484849"/>
</svg>
