<svg width="73" height="72" viewBox="0 0 73 72" fill="none" xmlns="http://www.w3.org/2000/svg">
<path d="M55.2812 31.5993C54.2563 32.6288 53.4715 33.8713 52.9825 35.2381C52.4936 36.6051 52.3126 38.0629 52.4524 39.5076L52.4038 39.459C52.5476 41.1598 52.3178 42.8711 51.7307 44.4741C51.1435 46.0768 50.2132 47.5324 49.0047 48.7393C47.7958 49.9459 46.3379 50.875 44.7323 51.4609C43.127 52.0471 41.4127 52.2766 39.7095 52.1329L39.7582 52.1815C37.7207 51.9923 35.6743 52.4348 33.8978 53.4492C32.1216 54.4636 30.7018 56.0002 29.8324 57.8497C28.9629 59.6992 28.6857 61.7712 29.0389 63.7838C29.3924 65.7961 30.3586 67.6508 31.8063 69.0948C33.2539 70.5387 35.1124 71.5018 37.1282 71.8526C39.1443 72.2036 41.2193 71.9249 43.071 71.0552C44.9227 70.1853 46.4604 68.7667 47.4748 66.9922C48.4892 65.2178 48.9308 63.1744 48.7394 61.1402L48.7907 61.1888C48.6469 59.4883 48.8765 57.7768 49.4636 56.1738C50.0507 54.5711 50.9813 53.1155 52.1899 51.9086C53.3987 50.7019 54.8566 49.7729 56.4619 49.1869C58.0675 48.6008 59.7815 48.3713 61.485 48.5149L61.4336 48.4663C63.0979 48.6156 64.7732 48.3432 66.3042 47.6741C67.8349 47.0051 69.1719 45.961 70.1909 44.6388C71.2099 43.3166 71.8784 41.7587 72.1337 40.11C72.3893 38.4611 72.2238 36.7747 71.6526 35.2065C71.0814 33.6386 70.123 32.24 68.8663 31.1403C67.6096 30.0406 66.0951 29.2754 64.4633 28.9157C62.8315 28.5561 61.1351 28.6133 59.5314 29.0823C57.9277 29.5516 56.4687 30.4172 55.2893 31.5993H55.2812Z" fill="#484849"/>
<path d="M35.3307 45.8157L35.2793 45.7671C36.727 45.9126 38.189 45.7352 39.5598 45.2476C40.9304 44.76 42.1755 43.9745 43.2047 42.9477C44.2337 41.9209 45.0218 40.6783 45.511 39.3102C46.0005 37.9421 46.1793 36.4828 46.0346 35.0372L46.086 35.0858C45.9421 33.385 46.172 31.6738 46.7588 30.0708C47.3459 28.468 48.2765 27.0124 49.4851 25.8055C50.6939 24.5989 52.1518 23.6698 53.7572 23.0839C55.3627 22.4976 57.0768 22.2683 58.7802 22.4119L58.7289 22.3633C60.7666 22.5544 62.8135 22.1131 64.5908 21.0999C66.3684 20.0867 67.7893 18.5508 68.6601 16.7016C69.5309 14.8525 69.8092 12.7801 69.457 10.7672C69.1049 8.75432 68.1395 6.89892 66.6921 5.45403C65.245 4.00917 63.3866 3.04515 61.3705 2.69356C59.3544 2.34193 57.2788 2.61979 55.4266 3.48925C53.5743 4.35869 52.0361 5.77742 51.0212 7.5519C50.0062 9.32635 49.5643 11.3702 49.7558 13.4046L49.7071 13.3533C49.8512 15.054 49.6219 16.7657 49.0351 18.3687C48.4482 19.9718 47.5177 21.4276 46.3091 22.6346C45.1002 23.8413 43.642 24.7703 42.0365 25.3563C40.4306 25.9422 38.7163 26.1711 37.0128 26.0272L37.0615 26.0785C35.6139 25.933 34.1516 26.1104 32.7811 26.598C31.4105 27.0853 30.1654 27.8711 29.1361 28.8979C28.1068 29.9247 27.3191 31.1672 26.8296 32.5353C26.3404 33.9034 26.1616 35.3628 26.3063 36.8084L26.2576 36.7598C26.4009 38.4603 26.1708 40.1716 25.5837 41.7743C24.9963 43.3767 24.066 44.8323 22.8574 46.039C21.6487 47.2456 20.191 48.1744 18.5858 48.7609C16.9806 49.347 15.2666 49.5768 13.5633 49.4337L13.612 49.4823C11.5743 49.2911 9.52721 49.7323 7.74988 50.7457C5.97257 51.759 4.55156 53.2947 3.68073 55.144C2.80987 56.9932 2.53154 59.0655 2.88373 61.0784C3.23592 63.0912 4.20148 64.9467 5.64867 66.3915C7.09588 67.8365 8.95426 68.8004 10.9704 69.152C12.9865 69.5035 15.0622 69.2257 16.9143 68.3563C18.7664 67.4869 20.3049 66.0683 21.3197 64.2938C22.3347 62.5191 22.7765 60.4755 22.5851 58.441L22.6365 58.4896C22.4926 56.7888 22.7225 55.0776 23.3096 53.4746C23.8964 51.8718 24.827 50.4162 26.0356 49.2093C27.2444 48.0027 28.7023 47.0736 30.3076 46.4877C31.9132 45.9015 33.6272 45.672 35.3307 45.8157Z" fill="#484849"/>
<path d="M17.2051 40.395C18.2301 39.3657 19.0149 38.1232 19.5034 36.7561C19.9919 35.3891 20.1721 33.9311 20.0311 32.4866L20.0825 32.5352C19.9386 30.8342 20.1684 29.1221 20.7558 27.5188C21.3432 25.9155 22.2741 24.4597 23.4835 23.2528C24.6929 22.0459 26.1514 21.1171 27.7575 20.5314C29.3636 19.9456 31.0785 19.7169 32.7822 19.8613L32.7308 19.8127C34.7677 20.0032 36.8141 19.5618 38.5906 18.5486C40.3671 17.5355 41.7872 15.9999 42.6577 14.1514C43.528 12.3028 43.806 10.2312 43.4539 8.21903C43.1018 6.20689 42.1363 4.35219 40.6898 2.90784C39.2432 1.46349 37.3853 0.499802 35.37 0.148206C33.3547 -0.203418 31.2797 0.0741979 29.4283 0.943119C27.5766 1.81204 26.0386 3.23001 25.0239 5.00366C24.009 6.7773 23.5668 8.8203 23.7578 10.854L23.7091 10.8054C23.8529 12.506 23.6231 14.2175 23.036 15.8203C22.4488 17.4232 21.5186 18.8788 20.3099 20.0856C19.1011 21.2924 17.6432 22.2213 16.0378 22.8073C14.4323 23.3935 12.7182 23.623 11.0148 23.4793L11.0635 23.5279C9.39914 23.3789 7.72404 23.6518 6.19342 24.3212C4.66281 24.9905 3.32618 26.0349 2.30742 27.3574C1.28866 28.6796 0.620735 30.2375 0.365497 31.8861C0.110287 33.535 0.276037 35.2214 0.847387 36.7891C1.41874 38.357 2.37724 39.7553 3.63404 40.8548C4.89084 41.9545 6.40528 42.7194 8.03704 43.079C9.66877 43.4384 11.365 43.3809 12.9686 42.9119C14.5722 42.4426 16.0312 41.577 17.2105 40.395H17.2051Z" fill="#484849"/>
</svg>
