<svg width="102" height="67" viewBox="0 0 102 67" fill="none" xmlns="http://www.w3.org/2000/svg">
<path d="M34.25 67.0001H44.4212L41.46 64.0389C40.6747 63.2537 39.6096 62.8125 38.4991 62.8125H34.25C18.0612 62.8125 4.93755 49.6889 4.93755 33.5C4.93755 17.3112 18.0612 4.18752 34.25 4.18751H67.75C83.9389 4.18751 97.0624 17.3112 97.0624 33.5C97.0624 49.6889 83.9389 62.8125 67.75 62.8125H55.2183C53.5524 62.8125 51.9547 62.1507 50.7766 60.9729L47.3078 57.5037C45.3445 55.5405 42.6816 54.4376 39.9051 54.4376H34.25C22.6865 54.4376 13.3125 45.0636 13.3125 33.5C13.3125 21.9365 22.6865 12.5625 34.25 12.5625H67.75C79.3135 12.5625 88.6875 21.9365 88.6875 33.5C88.6875 45.0636 79.3135 54.4376 67.75 54.4376H59.7034C58.0375 54.4376 56.4399 53.7758 55.2618 52.5978L51.7927 49.1288C49.8295 47.1656 47.1667 46.0625 44.3902 46.0625H34.25C27.312 46.0625 21.6874 40.4381 21.6874 33.5C21.6874 26.562 27.312 20.9375 34.25 20.9375H67.75C74.688 20.9375 80.3125 26.562 80.3125 33.5C80.3125 40.3535 74.8243 45.9252 68.0032 46.0601L68.0019 46.0625H64.9378C63.2719 46.0625 61.6743 45.4007 60.4962 44.2229L57.0271 40.7538C55.4163 39.1428 53.3344 38.1111 51.1051 37.7927L51 37.6875H34.25C31.9374 37.6875 30.0625 35.8127 30.0625 33.5C30.0625 31.1874 31.9374 29.3126 34.25 29.3126H67.75C70.0627 29.3126 71.9374 31.1874 71.9374 33.5C71.9374 35.8127 70.0627 37.6875 67.75 37.6875H59.3749L62.3361 40.6485C63.1213 41.4338 64.1865 41.8751 65.2969 41.8751H67.75C72.3753 41.8751 76.125 38.1254 76.125 33.5C76.125 28.8747 72.3753 25.125 67.75 25.125H34.25C29.6247 25.125 25.875 28.8747 25.875 33.5C25.875 38.1254 29.6247 41.8751 34.25 41.8751H49.6246C51.2905 41.8751 52.8882 42.5369 54.0663 43.7147L57.5353 47.1837C59.4985 49.1471 62.1613 50.25 64.9378 50.25H68.7969V50.2179C77.5599 49.6775 84.4999 42.3992 84.4999 33.5C84.4999 24.2493 77.0007 16.7501 67.75 16.7501H34.25C24.9993 16.7501 17.5 24.2493 17.5 33.5C17.5 42.7509 24.9993 50.25 34.25 50.25H44.3902C46.0563 50.25 47.6538 50.9118 48.8319 52.0896L52.3009 55.5588C54.2643 57.522 56.9269 58.625 59.7034 58.625H67.75C81.6262 58.625 92.875 47.3762 92.875 33.5C92.875 19.6238 81.6262 8.375 67.75 8.375H34.25C20.3738 8.375 9.12495 19.6238 9.12495 33.5C9.12495 47.3762 20.3738 58.625 34.25 58.625H39.9051C41.5711 58.625 43.1686 59.2868 44.3467 60.4647L47.8158 63.9338C49.7791 65.897 52.4418 67.0001 55.2183 67.0001H67.75C86.2515 67.0001 101.25 52.0016 101.25 33.5C101.25 14.9985 86.2515 0 67.75 0H34.25C15.7485 1.5e-05 0.75 14.9985 0.75 33.5C0.75 52.0016 15.7485 67.0001 34.25 67.0001Z" fill="#484849"/>
</svg>
